# Blender v2.77 (sub 0) OBJ File: 'Basic Wall Tile.blend'
# www.blender.org
mtllib wall.mtl
o Cube
v 20.000000 0.000000 0.000000
v 20.000000 0.000000 20.000000
v 0.000000 0.000000 20.000000
v 0.000000 0.000000 0.000000
v 20.000000 20.000000 0.000000
v 20.000000 20.000000 20.000000
v 0.000000 20.000000 20.000000
v 0.000000 20.000000 0.000000
vn 0.0000 -1.0000 0.0000
vn 0.0000 1.0000 0.0000
vn 0.0000 0.0000 1.0000
vn -1.0000 0.0000 0.0000
vn 1.0000 0.0000 0.0000
vn 0.0000 0.0000 -1.0000
usemtl Material
s off
f 1//1 2//1 3//1 4//1
f 5//2 8//2 7//2 6//2
f 3//3 2//3 6//3 7//3
f 4//4 3//4 7//4 8//4
f 2//5 1//5 5//5 6//5
f 1//6 4//6 8//6 5//6
